<svg width="321" height="320" viewBox="0 0 321 320" fill="none" xmlns="http://www.w3.org/2000/svg">
<circle cx="160.247" cy="159.876" r="159.876" fill="white"/>
<path fill-rule="evenodd" clip-rule="evenodd" d="M314.229 203.044L100.575 278.323C96.6723 279.698 92.5815 276.802 92.5815 272.664L92.5816 44.2796C92.5816 40.1413 96.6723 37.2454 100.575 38.6206L313.319 113.579C317.745 128.234 320.125 143.777 320.125 159.876C320.125 174.834 318.07 189.312 314.229 203.044Z" fill="url(#paint0_linear_2_6913)"/>
<rect x="83.1147" y="144.449" width="158.473" height="28.0484" fill="url(#paint1_linear_2_6913)"/>
<path fill-rule="evenodd" clip-rule="evenodd" d="M1.10791 144.446C1.18796 144.448 1.26817 144.448 1.34852 144.448H279.881C288.165 144.448 294.881 137.733 294.881 129.448V117.376C294.881 109.091 288.165 102.376 279.881 102.376H11.0248C5.91154 115.637 2.5151 129.751 1.10791 144.446Z" fill="black"/>
<path fill-rule="evenodd" clip-rule="evenodd" d="M9.9713 214.57H279.879C288.164 214.57 294.879 207.855 294.879 199.57V187.498C294.879 179.214 288.164 172.498 279.879 172.498H1.34696C1.18496 172.498 1.02356 172.5 0.862793 172.505C2.00883 187.172 5.13394 201.282 9.9713 214.57Z" fill="black"/>
<defs>
<linearGradient id="paint0_linear_2_6913" x1="440.733" y1="158.472" x2="-23.469" y2="158.472" gradientUnits="userSpaceOnUse">
<stop offset="0.380208"/>
<stop offset="1" stop-color="white" stop-opacity="0"/>
</linearGradient>
<linearGradient id="paint1_linear_2_6913" x1="102.063" y1="158.473" x2="241.588" y2="158.473" gradientUnits="userSpaceOnUse">
<stop offset="0.1875" stop-color="white"/>
<stop offset="0.885417" stop-opacity="0"/>
</linearGradient>
</defs>
</svg>
